<mxfile host="Electron" modified="2024-02-16T01:52:47.155Z" agent="Mozilla/5.0 (Windows NT 10.0; Win64; x64) AppleWebKit/537.36 (KHTML, like Gecko) draw.io/22.1.21 Chrome/120.0.6099.109 Electron/28.1.0 Safari/537.36" etag="t4qaAQJ49a4TIGyYPX1m" version="22.1.21" type="device">
  <diagram name="PÃ¡gina-1" id="odEJm7NLrHrXEt8aZHD7">
    <mxGraphModel dx="1870" dy="704" grid="1" gridSize="10" guides="1" tooltips="1" connect="1" arrows="1" fold="1" page="1" pageScale="1" pageWidth="827" pageHeight="1169" math="0" shadow="0">
      <root>
        <mxCell id="0" />
        <mxCell id="1" parent="0" />
        <mxCell id="RWISE_kW_2bD8TeYGAy0-4" value="" style="edgeStyle=orthogonalEdgeStyle;rounded=0;orthogonalLoop=1;jettySize=auto;html=1;" parent="1" source="RWISE_kW_2bD8TeYGAy0-2" target="RWISE_kW_2bD8TeYGAy0-3" edge="1">
          <mxGeometry relative="1" as="geometry" />
        </mxCell>
        <mxCell id="RWISE_kW_2bD8TeYGAy0-19" style="edgeStyle=orthogonalEdgeStyle;rounded=0;orthogonalLoop=1;jettySize=auto;html=1;" parent="1" target="RWISE_kW_2bD8TeYGAy0-2" edge="1">
          <mxGeometry relative="1" as="geometry">
            <mxPoint x="210" y="40" as="sourcePoint" />
          </mxGeometry>
        </mxCell>
        <mxCell id="RWISE_kW_2bD8TeYGAy0-2" value="" style="rounded=0;whiteSpace=wrap;html=1;" parent="1" vertex="1">
          <mxGeometry x="150" y="80" width="120" height="60" as="geometry" />
        </mxCell>
        <mxCell id="RWISE_kW_2bD8TeYGAy0-5" style="edgeStyle=orthogonalEdgeStyle;rounded=0;orthogonalLoop=1;jettySize=auto;html=1;entryX=0;entryY=0.5;entryDx=0;entryDy=0;" parent="1" source="RWISE_kW_2bD8TeYGAy0-3" target="RWISE_kW_2bD8TeYGAy0-2" edge="1">
          <mxGeometry relative="1" as="geometry">
            <Array as="points">
              <mxPoint x="130" y="250" />
              <mxPoint x="130" y="110" />
            </Array>
          </mxGeometry>
        </mxCell>
        <mxCell id="RWISE_kW_2bD8TeYGAy0-7" value="" style="edgeStyle=orthogonalEdgeStyle;rounded=0;orthogonalLoop=1;jettySize=auto;html=1;" parent="1" source="RWISE_kW_2bD8TeYGAy0-3" target="RWISE_kW_2bD8TeYGAy0-6" edge="1">
          <mxGeometry relative="1" as="geometry" />
        </mxCell>
        <mxCell id="RWISE_kW_2bD8TeYGAy0-3" value="INI_NONO" style="rhombus;whiteSpace=wrap;html=1;" parent="1" vertex="1">
          <mxGeometry x="170" y="210" width="80" height="80" as="geometry" />
        </mxCell>
        <mxCell id="RWISE_kW_2bD8TeYGAy0-9" value="" style="edgeStyle=orthogonalEdgeStyle;rounded=0;orthogonalLoop=1;jettySize=auto;html=1;" parent="1" source="RWISE_kW_2bD8TeYGAy0-6" target="RWISE_kW_2bD8TeYGAy0-8" edge="1">
          <mxGeometry relative="1" as="geometry" />
        </mxCell>
        <mxCell id="RWISE_kW_2bD8TeYGAy0-6" value="" style="rounded=0;whiteSpace=wrap;html=1;" parent="1" vertex="1">
          <mxGeometry x="150" y="360" width="120" height="60" as="geometry" />
        </mxCell>
        <mxCell id="RWISE_kW_2bD8TeYGAy0-10" style="edgeStyle=orthogonalEdgeStyle;rounded=0;orthogonalLoop=1;jettySize=auto;html=1;entryX=0;entryY=0.5;entryDx=0;entryDy=0;" parent="1" source="RWISE_kW_2bD8TeYGAy0-8" target="RWISE_kW_2bD8TeYGAy0-6" edge="1">
          <mxGeometry relative="1" as="geometry">
            <Array as="points">
              <mxPoint x="130" y="510" />
              <mxPoint x="130" y="390" />
            </Array>
          </mxGeometry>
        </mxCell>
        <mxCell id="RWISE_kW_2bD8TeYGAy0-13" value="" style="edgeStyle=orthogonalEdgeStyle;rounded=0;orthogonalLoop=1;jettySize=auto;html=1;" parent="1" source="RWISE_kW_2bD8TeYGAy0-8" target="RWISE_kW_2bD8TeYGAy0-12" edge="1">
          <mxGeometry relative="1" as="geometry" />
        </mxCell>
        <mxCell id="RWISE_kW_2bD8TeYGAy0-8" value="OUT_CMD" style="rhombus;whiteSpace=wrap;html=1;" parent="1" vertex="1">
          <mxGeometry x="170" y="470" width="80" height="80" as="geometry" />
        </mxCell>
        <mxCell id="RWISE_kW_2bD8TeYGAy0-16" value="" style="edgeStyle=orthogonalEdgeStyle;rounded=0;orthogonalLoop=1;jettySize=auto;html=1;" parent="1" source="RWISE_kW_2bD8TeYGAy0-12" target="RWISE_kW_2bD8TeYGAy0-15" edge="1">
          <mxGeometry relative="1" as="geometry" />
        </mxCell>
        <mxCell id="RWISE_kW_2bD8TeYGAy0-12" value="LD_SOL&lt;br&gt;DONE_BIT" style="rounded=0;whiteSpace=wrap;html=1;" parent="1" vertex="1">
          <mxGeometry x="150" y="600" width="120" height="60" as="geometry" />
        </mxCell>
        <mxCell id="RWISE_kW_2bD8TeYGAy0-17" style="edgeStyle=orthogonalEdgeStyle;rounded=0;orthogonalLoop=1;jettySize=auto;html=1;entryX=0;entryY=0.25;entryDx=0;entryDy=0;" parent="1" source="RWISE_kW_2bD8TeYGAy0-15" target="RWISE_kW_2bD8TeYGAy0-6" edge="1">
          <mxGeometry relative="1" as="geometry">
            <Array as="points">
              <mxPoint x="60" y="750" />
              <mxPoint x="60" y="375" />
            </Array>
          </mxGeometry>
        </mxCell>
        <mxCell id="RWISE_kW_2bD8TeYGAy0-31" style="edgeStyle=orthogonalEdgeStyle;rounded=0;orthogonalLoop=1;jettySize=auto;html=1;entryX=0.5;entryY=0;entryDx=0;entryDy=0;" parent="1" source="RWISE_kW_2bD8TeYGAy0-32" target="RWISE_kW_2bD8TeYGAy0-30" edge="1">
          <mxGeometry relative="1" as="geometry">
            <Array as="points">
              <mxPoint x="340" y="50" />
              <mxPoint x="590" y="50" />
            </Array>
          </mxGeometry>
        </mxCell>
        <mxCell id="RWISE_kW_2bD8TeYGAy0-15" value="END_SOL" style="rhombus;whiteSpace=wrap;html=1;" parent="1" vertex="1">
          <mxGeometry x="170" y="710" width="80" height="80" as="geometry" />
        </mxCell>
        <mxCell id="RWISE_kW_2bD8TeYGAy0-18" value="LD_CONT_SOL" style="ellipse;whiteSpace=wrap;html=1;" parent="1" vertex="1">
          <mxGeometry x="150" y="300" width="120" height="40" as="geometry" />
        </mxCell>
        <mxCell id="RWISE_kW_2bD8TeYGAy0-20" value="Reset_L*" style="text;html=1;strokeColor=none;fillColor=none;align=center;verticalAlign=middle;whiteSpace=wrap;rounded=0;" parent="1" vertex="1">
          <mxGeometry x="210" y="10" width="60" height="30" as="geometry" />
        </mxCell>
        <mxCell id="RWISE_kW_2bD8TeYGAy0-21" value="E_W8_INI" style="text;html=1;align=center;verticalAlign=middle;resizable=0;points=[];autosize=1;strokeColor=none;fillColor=none;" parent="1" vertex="1">
          <mxGeometry x="110" y="50" width="80" height="30" as="geometry" />
        </mxCell>
        <mxCell id="RWISE_kW_2bD8TeYGAy0-22" value="E_W8_CMD" style="text;html=1;strokeColor=none;fillColor=none;align=center;verticalAlign=middle;whiteSpace=wrap;rounded=0;" parent="1" vertex="1">
          <mxGeometry x="250" y="420" width="60" height="30" as="geometry" />
        </mxCell>
        <mxCell id="RWISE_kW_2bD8TeYGAy0-23" value="E_LD_SOL" style="text;html=1;align=center;verticalAlign=middle;resizable=0;points=[];autosize=1;strokeColor=none;fillColor=none;" parent="1" vertex="1">
          <mxGeometry x="250" y="570" width="80" height="30" as="geometry" />
        </mxCell>
        <mxCell id="RWISE_kW_2bD8TeYGAy0-24" value="DECR_CONT_SOL" style="ellipse;whiteSpace=wrap;html=1;" parent="1" vertex="1">
          <mxGeometry y="550" width="120" height="50" as="geometry" />
        </mxCell>
        <mxCell id="RWISE_kW_2bD8TeYGAy0-25" value="0" style="text;html=1;align=center;verticalAlign=middle;resizable=0;points=[];autosize=1;strokeColor=none;fillColor=none;" parent="1" vertex="1">
          <mxGeometry x="100" y="180" width="30" height="30" as="geometry" />
        </mxCell>
        <mxCell id="RWISE_kW_2bD8TeYGAy0-26" value="0" style="text;html=1;align=center;verticalAlign=middle;resizable=0;points=[];autosize=1;strokeColor=none;fillColor=none;" parent="1" vertex="1">
          <mxGeometry x="100" y="430" width="30" height="30" as="geometry" />
        </mxCell>
        <mxCell id="RWISE_kW_2bD8TeYGAy0-27" value="0" style="text;html=1;align=center;verticalAlign=middle;resizable=0;points=[];autosize=1;strokeColor=none;fillColor=none;" parent="1" vertex="1">
          <mxGeometry x="30" y="660" width="30" height="30" as="geometry" />
        </mxCell>
        <mxCell id="RWISE_kW_2bD8TeYGAy0-28" value="1" style="text;html=1;align=center;verticalAlign=middle;resizable=0;points=[];autosize=1;strokeColor=none;fillColor=none;" parent="1" vertex="1">
          <mxGeometry x="210" y="550" width="30" height="30" as="geometry" />
        </mxCell>
        <mxCell id="RWISE_kW_2bD8TeYGAy0-29" value="1" style="text;html=1;align=center;verticalAlign=middle;resizable=0;points=[];autosize=1;strokeColor=none;fillColor=none;" parent="1" vertex="1">
          <mxGeometry x="225" y="270" width="30" height="30" as="geometry" />
        </mxCell>
        <mxCell id="RWISE_kW_2bD8TeYGAy0-34" style="edgeStyle=orthogonalEdgeStyle;rounded=0;orthogonalLoop=1;jettySize=auto;html=1;entryX=0.5;entryY=0;entryDx=0;entryDy=0;" parent="1" source="RWISE_kW_2bD8TeYGAy0-30" target="RWISE_kW_2bD8TeYGAy0-33" edge="1">
          <mxGeometry relative="1" as="geometry" />
        </mxCell>
        <mxCell id="RWISE_kW_2bD8TeYGAy0-30" value="" style="rounded=0;whiteSpace=wrap;html=1;" parent="1" vertex="1">
          <mxGeometry x="530" y="70" width="120" height="60" as="geometry" />
        </mxCell>
        <mxCell id="RWISE_kW_2bD8TeYGAy0-36" value="" style="edgeStyle=orthogonalEdgeStyle;rounded=0;orthogonalLoop=1;jettySize=auto;html=1;" parent="1" source="RWISE_kW_2bD8TeYGAy0-33" target="RWISE_kW_2bD8TeYGAy0-35" edge="1">
          <mxGeometry relative="1" as="geometry" />
        </mxCell>
        <mxCell id="RWISE_kW_2bD8TeYGAy0-33" value="&#xa;&lt;span style=&quot;color: rgb(0, 0, 0); font-family: Helvetica; font-size: 12px; font-style: normal; font-variant-ligatures: normal; font-variant-caps: normal; font-weight: 400; letter-spacing: normal; orphans: 2; text-align: center; text-indent: 0px; text-transform: none; widows: 2; word-spacing: 0px; -webkit-text-stroke-width: 0px; background-color: rgb(251, 251, 251); text-decoration-thickness: initial; text-decoration-style: initial; text-decoration-color: initial; float: none; display: inline !important;&quot;&gt;DEL_SCREEN&lt;/span&gt;&#xa;&#xa;" style="rounded=0;whiteSpace=wrap;html=1;" parent="1" vertex="1">
          <mxGeometry x="530" y="230" width="120" height="60" as="geometry" />
        </mxCell>
        <mxCell id="RWISE_kW_2bD8TeYGAy0-37" style="edgeStyle=orthogonalEdgeStyle;rounded=0;orthogonalLoop=1;jettySize=auto;html=1;entryX=1;entryY=0.5;entryDx=0;entryDy=0;exitX=1;exitY=0.5;exitDx=0;exitDy=0;" parent="1" source="RWISE_kW_2bD8TeYGAy0-35" target="RWISE_kW_2bD8TeYGAy0-33" edge="1">
          <mxGeometry relative="1" as="geometry">
            <Array as="points">
              <mxPoint x="710" y="350" />
              <mxPoint x="710" y="260" />
            </Array>
          </mxGeometry>
        </mxCell>
        <mxCell id="RWISE_kW_2bD8TeYGAy0-39" value="" style="edgeStyle=orthogonalEdgeStyle;rounded=0;orthogonalLoop=1;jettySize=auto;html=1;" parent="1" source="RWISE_kW_2bD8TeYGAy0-55" target="RWISE_kW_2bD8TeYGAy0-38" edge="1">
          <mxGeometry relative="1" as="geometry" />
        </mxCell>
        <mxCell id="RWISE_kW_2bD8TeYGAy0-116" value="" style="edgeStyle=orthogonalEdgeStyle;rounded=0;orthogonalLoop=1;jettySize=auto;html=1;endArrow=none;endFill=0;" parent="1" source="RWISE_kW_2bD8TeYGAy0-35" target="RWISE_kW_2bD8TeYGAy0-55" edge="1">
          <mxGeometry relative="1" as="geometry" />
        </mxCell>
        <mxCell id="RWISE_kW_2bD8TeYGAy0-35" value="DONE_DEL" style="rhombus;whiteSpace=wrap;html=1;" parent="1" vertex="1">
          <mxGeometry x="550" y="310" width="80" height="80" as="geometry" />
        </mxCell>
        <mxCell id="RWISE_kW_2bD8TeYGAy0-41" value="" style="edgeStyle=orthogonalEdgeStyle;rounded=0;orthogonalLoop=1;jettySize=auto;html=1;" parent="1" source="RWISE_kW_2bD8TeYGAy0-58" target="RWISE_kW_2bD8TeYGAy0-40" edge="1">
          <mxGeometry relative="1" as="geometry" />
        </mxCell>
        <mxCell id="RWISE_kW_2bD8TeYGAy0-38" value="CL_FIG" style="rounded=0;whiteSpace=wrap;html=1;" parent="1" vertex="1">
          <mxGeometry x="530" y="480" width="120" height="60" as="geometry" />
        </mxCell>
        <mxCell id="RWISE_kW_2bD8TeYGAy0-43" value="" style="edgeStyle=orthogonalEdgeStyle;rounded=0;orthogonalLoop=1;jettySize=auto;html=1;" parent="1" source="RWISE_kW_2bD8TeYGAy0-40" target="RWISE_kW_2bD8TeYGAy0-42" edge="1">
          <mxGeometry relative="1" as="geometry" />
        </mxCell>
        <mxCell id="RWISE_kW_2bD8TeYGAy0-40" value="" style="rounded=0;whiteSpace=wrap;html=1;" parent="1" vertex="1">
          <mxGeometry x="530" y="800" width="120" height="60" as="geometry" />
        </mxCell>
        <mxCell id="RWISE_kW_2bD8TeYGAy0-45" value="" style="edgeStyle=orthogonalEdgeStyle;rounded=0;orthogonalLoop=1;jettySize=auto;html=1;" parent="1" source="RWISE_kW_2bD8TeYGAy0-42" target="RWISE_kW_2bD8TeYGAy0-44" edge="1">
          <mxGeometry relative="1" as="geometry" />
        </mxCell>
        <mxCell id="RWISE_kW_2bD8TeYGAy0-42" value="" style="rounded=0;whiteSpace=wrap;html=1;" parent="1" vertex="1">
          <mxGeometry x="370" y="1080" width="120" height="60" as="geometry" />
        </mxCell>
        <mxCell id="RWISE_kW_2bD8TeYGAy0-46" style="edgeStyle=orthogonalEdgeStyle;rounded=0;orthogonalLoop=1;jettySize=auto;html=1;entryX=1;entryY=0.5;entryDx=0;entryDy=0;" parent="1" source="RWISE_kW_2bD8TeYGAy0-44" target="RWISE_kW_2bD8TeYGAy0-42" edge="1">
          <mxGeometry relative="1" as="geometry">
            <Array as="points">
              <mxPoint x="530" y="1230" />
              <mxPoint x="530" y="1110" />
            </Array>
          </mxGeometry>
        </mxCell>
        <mxCell id="RWISE_kW_2bD8TeYGAy0-83" value="" style="edgeStyle=orthogonalEdgeStyle;rounded=0;orthogonalLoop=1;jettySize=auto;html=1;" parent="1" source="RWISE_kW_2bD8TeYGAy0-44" target="RWISE_kW_2bD8TeYGAy0-70" edge="1">
          <mxGeometry relative="1" as="geometry" />
        </mxCell>
        <mxCell id="RWISE_kW_2bD8TeYGAy0-44" value="DONE_FIG" style="rhombus;whiteSpace=wrap;html=1;" parent="1" vertex="1">
          <mxGeometry x="390" y="1180" width="80" height="80" as="geometry" />
        </mxCell>
        <mxCell id="RWISE_kW_2bD8TeYGAy0-53" value="" style="edgeStyle=orthogonalEdgeStyle;rounded=0;orthogonalLoop=1;jettySize=auto;html=1;entryX=0.5;entryY=0;entryDx=0;entryDy=0;" parent="1" source="RWISE_kW_2bD8TeYGAy0-15" target="RWISE_kW_2bD8TeYGAy0-32" edge="1">
          <mxGeometry relative="1" as="geometry">
            <mxPoint x="250" y="750" as="sourcePoint" />
            <mxPoint x="560" y="70" as="targetPoint" />
            <Array as="points">
              <mxPoint x="340" y="750" />
            </Array>
          </mxGeometry>
        </mxCell>
        <mxCell id="RWISE_kW_2bD8TeYGAy0-32" value="LD_DEL" style="ellipse;whiteSpace=wrap;html=1;" parent="1" vertex="1">
          <mxGeometry x="280" y="260" width="120" height="50" as="geometry" />
        </mxCell>
        <mxCell id="RWISE_kW_2bD8TeYGAy0-55" value="LD_CONT_FIG" style="ellipse;whiteSpace=wrap;html=1;" parent="1" vertex="1">
          <mxGeometry x="530" y="415" width="120" height="45" as="geometry" />
        </mxCell>
        <mxCell id="RWISE_kW_2bD8TeYGAy0-59" style="edgeStyle=orthogonalEdgeStyle;rounded=0;orthogonalLoop=1;jettySize=auto;html=1;entryX=0.25;entryY=0;entryDx=0;entryDy=0;" parent="1" source="RWISE_kW_2bD8TeYGAy0-58" target="RWISE_kW_2bD8TeYGAy0-40" edge="1">
          <mxGeometry relative="1" as="geometry">
            <Array as="points">
              <mxPoint x="450" y="650" />
              <mxPoint x="450" y="780" />
              <mxPoint x="560" y="780" />
            </Array>
          </mxGeometry>
        </mxCell>
        <mxCell id="RWISE_kW_2bD8TeYGAy0-60" value="" style="edgeStyle=orthogonalEdgeStyle;rounded=0;orthogonalLoop=1;jettySize=auto;html=1;" parent="1" source="RWISE_kW_2bD8TeYGAy0-38" target="RWISE_kW_2bD8TeYGAy0-58" edge="1">
          <mxGeometry relative="1" as="geometry">
            <mxPoint x="590" y="540" as="sourcePoint" />
            <mxPoint x="590" y="770" as="targetPoint" />
          </mxGeometry>
        </mxCell>
        <mxCell id="RWISE_kW_2bD8TeYGAy0-58" value="CONT_FIG" style="shape=hexagon;perimeter=hexagonPerimeter2;whiteSpace=wrap;html=1;fixedSize=1;" parent="1" vertex="1">
          <mxGeometry x="530" y="610" width="120" height="80" as="geometry" />
        </mxCell>
        <mxCell id="RWISE_kW_2bD8TeYGAy0-61" value="LD_XPOS&lt;br&gt;LD_YPOS" style="ellipse;whiteSpace=wrap;html=1;" parent="1" vertex="1">
          <mxGeometry x="530" y="550" width="120" height="45" as="geometry" />
        </mxCell>
        <mxCell id="RWISE_kW_2bD8TeYGAy0-124" value="" style="edgeStyle=orthogonalEdgeStyle;rounded=0;orthogonalLoop=1;jettySize=auto;html=1;" parent="1" source="RWISE_kW_2bD8TeYGAy0-62" target="RWISE_kW_2bD8TeYGAy0-40" edge="1">
          <mxGeometry relative="1" as="geometry" />
        </mxCell>
        <mxCell id="RWISE_kW_2bD8TeYGAy0-62" value="LD_LINE" style="ellipse;whiteSpace=wrap;html=1;" parent="1" vertex="1">
          <mxGeometry x="530" y="720" width="120" height="45" as="geometry" />
        </mxCell>
        <mxCell id="RWISE_kW_2bD8TeYGAy0-63" value="LD_CUAD" style="ellipse;whiteSpace=wrap;html=1;" parent="1" vertex="1">
          <mxGeometry x="390" y="720" width="120" height="45" as="geometry" />
        </mxCell>
        <mxCell id="RWISE_kW_2bD8TeYGAy0-67" style="edgeStyle=orthogonalEdgeStyle;rounded=0;orthogonalLoop=1;jettySize=auto;html=1;entryX=0.75;entryY=0;entryDx=0;entryDy=0;" parent="1" source="RWISE_kW_2bD8TeYGAy0-58" target="RWISE_kW_2bD8TeYGAy0-40" edge="1">
          <mxGeometry relative="1" as="geometry">
            <Array as="points">
              <mxPoint x="730" y="650" />
              <mxPoint x="730" y="780" />
              <mxPoint x="620" y="780" />
            </Array>
          </mxGeometry>
        </mxCell>
        <mxCell id="RWISE_kW_2bD8TeYGAy0-68" value="LD_TRIA" style="ellipse;whiteSpace=wrap;html=1;" parent="1" vertex="1">
          <mxGeometry x="670" y="720" width="120" height="45" as="geometry" />
        </mxCell>
        <mxCell id="RWISE_kW_2bD8TeYGAy0-75" style="edgeStyle=orthogonalEdgeStyle;rounded=0;orthogonalLoop=1;jettySize=auto;html=1;entryX=0.5;entryY=0;entryDx=0;entryDy=0;" parent="1" source="RWISE_kW_2bD8TeYGAy0-70" target="RWISE_kW_2bD8TeYGAy0-74" edge="1">
          <mxGeometry relative="1" as="geometry" />
        </mxCell>
        <mxCell id="RWISE_kW_2bD8TeYGAy0-84" style="edgeStyle=orthogonalEdgeStyle;rounded=0;orthogonalLoop=1;jettySize=auto;html=1;entryX=1;entryY=0.5;entryDx=0;entryDy=0;" parent="1" source="RWISE_kW_2bD8TeYGAy0-70" target="RWISE_kW_2bD8TeYGAy0-82" edge="1">
          <mxGeometry relative="1" as="geometry" />
        </mxCell>
        <mxCell id="RWISE_kW_2bD8TeYGAy0-85" style="edgeStyle=orthogonalEdgeStyle;rounded=0;orthogonalLoop=1;jettySize=auto;html=1;" parent="1" source="RWISE_kW_2bD8TeYGAy0-70" target="RWISE_kW_2bD8TeYGAy0-73" edge="1">
          <mxGeometry relative="1" as="geometry">
            <Array as="points">
              <mxPoint x="720" y="1320" />
            </Array>
          </mxGeometry>
        </mxCell>
        <mxCell id="RWISE_kW_2bD8TeYGAy0-70" value="CONT_FIG" style="shape=hexagon;perimeter=hexagonPerimeter2;whiteSpace=wrap;html=1;fixedSize=1;" parent="1" vertex="1">
          <mxGeometry x="370" y="1280" width="120" height="80" as="geometry" />
        </mxCell>
        <mxCell id="RWISE_kW_2bD8TeYGAy0-78" value="" style="edgeStyle=orthogonalEdgeStyle;rounded=0;orthogonalLoop=1;jettySize=auto;html=1;" parent="1" source="RWISE_kW_2bD8TeYGAy0-73" target="RWISE_kW_2bD8TeYGAy0-77" edge="1">
          <mxGeometry relative="1" as="geometry" />
        </mxCell>
        <mxCell id="RWISE_kW_2bD8TeYGAy0-101" style="edgeStyle=orthogonalEdgeStyle;rounded=0;orthogonalLoop=1;jettySize=auto;html=1;entryX=0.5;entryY=0;entryDx=0;entryDy=0;" parent="1" source="RWISE_kW_2bD8TeYGAy0-73" target="RWISE_kW_2bD8TeYGAy0-88" edge="1">
          <mxGeometry relative="1" as="geometry">
            <mxPoint x="540" y="1460" as="targetPoint" />
          </mxGeometry>
        </mxCell>
        <mxCell id="RWISE_kW_2bD8TeYGAy0-73" value="XLIM_CUAD" style="rhombus;whiteSpace=wrap;html=1;" parent="1" vertex="1">
          <mxGeometry x="680" y="1420" width="80" height="80" as="geometry" />
        </mxCell>
        <mxCell id="RWISE_kW_2bD8TeYGAy0-79" value="" style="edgeStyle=orthogonalEdgeStyle;rounded=0;orthogonalLoop=1;jettySize=auto;html=1;" parent="1" source="RWISE_kW_2bD8TeYGAy0-74" target="RWISE_kW_2bD8TeYGAy0-76" edge="1">
          <mxGeometry relative="1" as="geometry" />
        </mxCell>
        <mxCell id="RWISE_kW_2bD8TeYGAy0-100" style="edgeStyle=orthogonalEdgeStyle;rounded=0;orthogonalLoop=1;jettySize=auto;html=1;entryX=0.5;entryY=0;entryDx=0;entryDy=0;" parent="1" source="RWISE_kW_2bD8TeYGAy0-74" target="RWISE_kW_2bD8TeYGAy0-88" edge="1">
          <mxGeometry relative="1" as="geometry" />
        </mxCell>
        <mxCell id="RWISE_kW_2bD8TeYGAy0-74" value="XLIM_LINE" style="rhombus;whiteSpace=wrap;html=1;" parent="1" vertex="1">
          <mxGeometry x="330" y="1420" width="80" height="80" as="geometry" />
        </mxCell>
        <mxCell id="RWISE_kW_2bD8TeYGAy0-91" style="edgeStyle=orthogonalEdgeStyle;rounded=0;orthogonalLoop=1;jettySize=auto;html=1;entryX=0.5;entryY=1;entryDx=0;entryDy=0;" parent="1" source="RWISE_kW_2bD8TeYGAy0-76" target="RWISE_kW_2bD8TeYGAy0-88" edge="1">
          <mxGeometry relative="1" as="geometry">
            <Array as="points">
              <mxPoint x="550" y="1610" />
            </Array>
          </mxGeometry>
        </mxCell>
        <mxCell id="RWISE_kW_2bD8TeYGAy0-113" style="edgeStyle=orthogonalEdgeStyle;rounded=0;orthogonalLoop=1;jettySize=auto;html=1;entryX=0.5;entryY=0;entryDx=0;entryDy=0;" parent="1" source="RWISE_kW_2bD8TeYGAy0-76" target="RWISE_kW_2bD8TeYGAy0-106" edge="1">
          <mxGeometry relative="1" as="geometry">
            <Array as="points">
              <mxPoint x="370" y="1700" />
              <mxPoint x="550" y="1700" />
            </Array>
          </mxGeometry>
        </mxCell>
        <mxCell id="RWISE_kW_2bD8TeYGAy0-76" value="YLIM_LINE" style="rhombus;whiteSpace=wrap;html=1;" parent="1" vertex="1">
          <mxGeometry x="330" y="1570" width="80" height="80" as="geometry" />
        </mxCell>
        <mxCell id="RWISE_kW_2bD8TeYGAy0-92" style="edgeStyle=orthogonalEdgeStyle;rounded=0;orthogonalLoop=1;jettySize=auto;html=1;entryX=0.5;entryY=1;entryDx=0;entryDy=0;" parent="1" source="RWISE_kW_2bD8TeYGAy0-77" target="RWISE_kW_2bD8TeYGAy0-88" edge="1">
          <mxGeometry relative="1" as="geometry">
            <Array as="points">
              <mxPoint x="550" y="1610" />
            </Array>
          </mxGeometry>
        </mxCell>
        <mxCell id="RWISE_kW_2bD8TeYGAy0-109" style="edgeStyle=orthogonalEdgeStyle;rounded=0;orthogonalLoop=1;jettySize=auto;html=1;entryX=0.5;entryY=0;entryDx=0;entryDy=0;" parent="1" source="RWISE_kW_2bD8TeYGAy0-110" target="RWISE_kW_2bD8TeYGAy0-106" edge="1">
          <mxGeometry relative="1" as="geometry">
            <Array as="points">
              <mxPoint x="550" y="1740" />
              <mxPoint x="550" y="1740" />
            </Array>
          </mxGeometry>
        </mxCell>
        <mxCell id="RWISE_kW_2bD8TeYGAy0-77" value="YLIM_CUAD" style="rhombus;whiteSpace=wrap;html=1;" parent="1" vertex="1">
          <mxGeometry x="680" y="1570" width="80" height="80" as="geometry" />
        </mxCell>
        <mxCell id="RWISE_kW_2bD8TeYGAy0-82" value="E_W8_CURSOR" style="rounded=0;whiteSpace=wrap;html=1;fillColor=#f5f5f5;fontColor=#333333;strokeColor=#666666;" parent="1" vertex="1">
          <mxGeometry x="70" y="1290" width="120" height="60" as="geometry" />
        </mxCell>
        <mxCell id="RWISE_kW_2bD8TeYGAy0-88" value="E_LD_POS" style="rounded=0;whiteSpace=wrap;html=1;fillColor=#f5f5f5;fontColor=#333333;strokeColor=#666666;" parent="1" vertex="1">
          <mxGeometry x="490" y="1510" width="120" height="60" as="geometry" />
        </mxCell>
        <mxCell id="RWISE_kW_2bD8TeYGAy0-93" value="INCR_XPOS" style="ellipse;whiteSpace=wrap;html=1;" parent="1" vertex="1">
          <mxGeometry x="490" y="1437.5" width="120" height="45" as="geometry" />
        </mxCell>
        <mxCell id="RWISE_kW_2bD8TeYGAy0-104" value="INCR_YPOS&lt;br&gt;LD_XPOS" style="ellipse;whiteSpace=wrap;html=1;" parent="1" vertex="1">
          <mxGeometry x="490" y="1590" width="120" height="45" as="geometry" />
        </mxCell>
        <mxCell id="RWISE_kW_2bD8TeYGAy0-106" value="E_CL_FIG" style="rounded=0;whiteSpace=wrap;html=1;fillColor=#f5f5f5;fontColor=#333333;strokeColor=#666666;" parent="1" vertex="1">
          <mxGeometry x="490" y="1760" width="120" height="60" as="geometry" />
        </mxCell>
        <mxCell id="RWISE_kW_2bD8TeYGAy0-111" value="" style="edgeStyle=orthogonalEdgeStyle;rounded=0;orthogonalLoop=1;jettySize=auto;html=1;entryX=0.5;entryY=0;entryDx=0;entryDy=0;" parent="1" source="RWISE_kW_2bD8TeYGAy0-77" target="RWISE_kW_2bD8TeYGAy0-110" edge="1">
          <mxGeometry relative="1" as="geometry">
            <mxPoint x="720" y="1650" as="sourcePoint" />
            <mxPoint x="540" y="1790" as="targetPoint" />
            <Array as="points">
              <mxPoint x="720" y="1700" />
            </Array>
          </mxGeometry>
        </mxCell>
        <mxCell id="RWISE_kW_2bD8TeYGAy0-110" value="DECR_CONT_FIG" style="ellipse;whiteSpace=wrap;html=1;" parent="1" vertex="1">
          <mxGeometry x="490" y="1670" width="120" height="45" as="geometry" />
        </mxCell>
        <mxCell id="RWISE_kW_2bD8TeYGAy0-114" value="E_INI_NONO" style="text;html=1;align=center;verticalAlign=middle;resizable=0;points=[];autosize=1;strokeColor=none;fillColor=none;" parent="1" vertex="1">
          <mxGeometry x="630" y="40" width="100" height="30" as="geometry" />
        </mxCell>
        <mxCell id="RWISE_kW_2bD8TeYGAy0-115" value="E_W8_DEL" style="text;html=1;align=center;verticalAlign=middle;resizable=0;points=[];autosize=1;strokeColor=none;fillColor=none;" parent="1" vertex="1">
          <mxGeometry x="635" y="200" width="90" height="30" as="geometry" />
        </mxCell>
        <mxCell id="RWISE_kW_2bD8TeYGAy0-117" value="0" style="text;html=1;align=center;verticalAlign=middle;resizable=0;points=[];autosize=1;strokeColor=none;fillColor=none;" parent="1" vertex="1">
          <mxGeometry x="710" y="280" width="30" height="30" as="geometry" />
        </mxCell>
        <mxCell id="RWISE_kW_2bD8TeYGAy0-118" value="1" style="text;html=1;align=center;verticalAlign=middle;resizable=0;points=[];autosize=1;strokeColor=none;fillColor=none;" parent="1" vertex="1">
          <mxGeometry x="600" y="390" width="30" height="30" as="geometry" />
        </mxCell>
        <mxCell id="RWISE_kW_2bD8TeYGAy0-119" value="E_CL_FIG" style="text;html=1;align=center;verticalAlign=middle;resizable=0;points=[];autosize=1;strokeColor=none;fillColor=none;" parent="1" vertex="1">
          <mxGeometry x="650" y="495" width="80" height="30" as="geometry" />
        </mxCell>
        <mxCell id="RWISE_kW_2bD8TeYGAy0-120" value="2" style="text;html=1;align=center;verticalAlign=middle;resizable=0;points=[];autosize=1;strokeColor=none;fillColor=none;" parent="1" vertex="1">
          <mxGeometry x="460" y="620" width="30" height="30" as="geometry" />
        </mxCell>
        <mxCell id="RWISE_kW_2bD8TeYGAy0-121" value="0" style="text;html=1;align=center;verticalAlign=middle;resizable=0;points=[];autosize=1;strokeColor=none;fillColor=none;" parent="1" vertex="1">
          <mxGeometry x="690" y="620" width="30" height="30" as="geometry" />
        </mxCell>
        <mxCell id="RWISE_kW_2bD8TeYGAy0-122" value="1" style="text;html=1;align=center;verticalAlign=middle;resizable=0;points=[];autosize=1;strokeColor=none;fillColor=none;" parent="1" vertex="1">
          <mxGeometry x="590" y="695" width="30" height="30" as="geometry" />
        </mxCell>
        <mxCell id="RWISE_kW_2bD8TeYGAy0-123" value="0" style="text;html=1;align=center;verticalAlign=middle;resizable=0;points=[];autosize=1;strokeColor=none;fillColor=none;" parent="1" vertex="1">
          <mxGeometry x="530" y="1130" width="30" height="30" as="geometry" />
        </mxCell>
        <mxCell id="RWISE_kW_2bD8TeYGAy0-127" value="E_LD_POS" style="text;html=1;align=center;verticalAlign=middle;resizable=0;points=[];autosize=1;strokeColor=none;fillColor=none;" parent="1" vertex="1">
          <mxGeometry x="640" y="815" width="90" height="30" as="geometry" />
        </mxCell>
        <mxCell id="RWISE_kW_2bD8TeYGAy0-128" value="E_DIB_FIG" style="text;html=1;align=center;verticalAlign=middle;resizable=0;points=[];autosize=1;strokeColor=none;fillColor=none;" parent="1" vertex="1">
          <mxGeometry x="290" y="1100" width="80" height="30" as="geometry" />
        </mxCell>
        <mxCell id="RWISE_kW_2bD8TeYGAy0-136" value="" style="edgeStyle=orthogonalEdgeStyle;rounded=0;orthogonalLoop=1;jettySize=auto;html=1;" parent="1" source="RWISE_kW_2bD8TeYGAy0-138" edge="1">
          <mxGeometry relative="1" as="geometry">
            <mxPoint x="430" y="1080" as="targetPoint" />
          </mxGeometry>
        </mxCell>
        <mxCell id="RWISE_kW_2bD8TeYGAy0-137" style="edgeStyle=orthogonalEdgeStyle;rounded=0;orthogonalLoop=1;jettySize=auto;html=1;entryX=0.25;entryY=0;entryDx=0;entryDy=0;" parent="1" source="RWISE_kW_2bD8TeYGAy0-138" edge="1">
          <mxGeometry relative="1" as="geometry">
            <mxPoint x="400" y="1080" as="targetPoint" />
            <Array as="points">
              <mxPoint x="290" y="930" />
              <mxPoint x="290" y="1060" />
              <mxPoint x="400" y="1060" />
            </Array>
          </mxGeometry>
        </mxCell>
        <mxCell id="RWISE_kW_2bD8TeYGAy0-138" value="CONT_FIG" style="shape=hexagon;perimeter=hexagonPerimeter2;whiteSpace=wrap;html=1;fixedSize=1;" parent="1" vertex="1">
          <mxGeometry x="370" y="890" width="120" height="80" as="geometry" />
        </mxCell>
        <mxCell id="RWISE_kW_2bD8TeYGAy0-139" value="" style="edgeStyle=orthogonalEdgeStyle;rounded=0;orthogonalLoop=1;jettySize=auto;html=1;" parent="1" source="RWISE_kW_2bD8TeYGAy0-140" edge="1">
          <mxGeometry relative="1" as="geometry">
            <mxPoint x="430" y="1080" as="targetPoint" />
          </mxGeometry>
        </mxCell>
        <mxCell id="RWISE_kW_2bD8TeYGAy0-140" value="DRAW_LINE" style="ellipse;whiteSpace=wrap;html=1;" parent="1" vertex="1">
          <mxGeometry x="370" y="1000" width="120" height="45" as="geometry" />
        </mxCell>
        <mxCell id="RWISE_kW_2bD8TeYGAy0-141" value="DRAW_CUAD" style="ellipse;whiteSpace=wrap;html=1;" parent="1" vertex="1">
          <mxGeometry x="230" y="1000" width="120" height="45" as="geometry" />
        </mxCell>
        <mxCell id="RWISE_kW_2bD8TeYGAy0-142" style="edgeStyle=orthogonalEdgeStyle;rounded=0;orthogonalLoop=1;jettySize=auto;html=1;entryX=0.75;entryY=0;entryDx=0;entryDy=0;" parent="1" source="RWISE_kW_2bD8TeYGAy0-138" edge="1">
          <mxGeometry relative="1" as="geometry">
            <mxPoint x="460" y="1080" as="targetPoint" />
            <Array as="points">
              <mxPoint x="570" y="930" />
              <mxPoint x="570" y="1060" />
              <mxPoint x="460" y="1060" />
            </Array>
          </mxGeometry>
        </mxCell>
        <mxCell id="RWISE_kW_2bD8TeYGAy0-143" value="DRAW_TRIA" style="ellipse;whiteSpace=wrap;html=1;" parent="1" vertex="1">
          <mxGeometry x="510" y="1000" width="120" height="45" as="geometry" />
        </mxCell>
        <mxCell id="RWISE_kW_2bD8TeYGAy0-144" value="2" style="text;html=1;align=center;verticalAlign=middle;resizable=0;points=[];autosize=1;strokeColor=none;fillColor=none;" parent="1" vertex="1">
          <mxGeometry x="300" y="900" width="30" height="30" as="geometry" />
        </mxCell>
        <mxCell id="RWISE_kW_2bD8TeYGAy0-145" value="0" style="text;html=1;align=center;verticalAlign=middle;resizable=0;points=[];autosize=1;strokeColor=none;fillColor=none;" parent="1" vertex="1">
          <mxGeometry x="530" y="900" width="30" height="30" as="geometry" />
        </mxCell>
        <mxCell id="RWISE_kW_2bD8TeYGAy0-146" value="1" style="text;html=1;align=center;verticalAlign=middle;resizable=0;points=[];autosize=1;strokeColor=none;fillColor=none;" parent="1" vertex="1">
          <mxGeometry x="430" y="975" width="30" height="30" as="geometry" />
        </mxCell>
        <mxCell id="RWISE_kW_2bD8TeYGAy0-147" value="1" style="text;html=1;align=center;verticalAlign=middle;resizable=0;points=[];autosize=1;strokeColor=none;fillColor=none;" parent="1" vertex="1">
          <mxGeometry x="435" y="1250" width="30" height="30" as="geometry" />
        </mxCell>
        <mxCell id="RWISE_kW_2bD8TeYGAy0-148" value="2" style="text;html=1;align=center;verticalAlign=middle;resizable=0;points=[];autosize=1;strokeColor=none;fillColor=none;" parent="1" vertex="1">
          <mxGeometry x="520" y="1290" width="30" height="30" as="geometry" />
        </mxCell>
        <mxCell id="RWISE_kW_2bD8TeYGAy0-149" value="1" style="text;html=1;align=center;verticalAlign=middle;resizable=0;points=[];autosize=1;strokeColor=none;fillColor=none;" parent="1" vertex="1">
          <mxGeometry x="384" y="1360" width="30" height="30" as="geometry" />
        </mxCell>
        <mxCell id="RWISE_kW_2bD8TeYGAy0-150" value="0" style="text;html=1;align=center;verticalAlign=middle;resizable=0;points=[];autosize=1;strokeColor=none;fillColor=none;" parent="1" vertex="1">
          <mxGeometry x="330" y="1290" width="30" height="30" as="geometry" />
        </mxCell>
        <mxCell id="RWISE_kW_2bD8TeYGAy0-151" value="0" style="text;html=1;align=center;verticalAlign=middle;resizable=0;points=[];autosize=1;strokeColor=none;fillColor=none;" parent="1" vertex="1">
          <mxGeometry x="430" y="1430" width="30" height="30" as="geometry" />
        </mxCell>
        <mxCell id="RWISE_kW_2bD8TeYGAy0-152" value="0" style="text;html=1;align=center;verticalAlign=middle;resizable=0;points=[];autosize=1;strokeColor=none;fillColor=none;" parent="1" vertex="1">
          <mxGeometry x="630" y="1430" width="30" height="30" as="geometry" />
        </mxCell>
        <mxCell id="RWISE_kW_2bD8TeYGAy0-153" value="1" style="text;html=1;align=center;verticalAlign=middle;resizable=0;points=[];autosize=1;strokeColor=none;fillColor=none;" parent="1" vertex="1">
          <mxGeometry x="370" y="1525" width="30" height="30" as="geometry" />
        </mxCell>
        <mxCell id="RWISE_kW_2bD8TeYGAy0-154" value="1" style="text;html=1;align=center;verticalAlign=middle;resizable=0;points=[];autosize=1;strokeColor=none;fillColor=none;" parent="1" vertex="1">
          <mxGeometry x="690" y="1510" width="30" height="30" as="geometry" />
        </mxCell>
        <mxCell id="RWISE_kW_2bD8TeYGAy0-155" value="0" style="text;html=1;align=center;verticalAlign=middle;resizable=0;points=[];autosize=1;strokeColor=none;fillColor=none;" parent="1" vertex="1">
          <mxGeometry x="620" y="1580" width="30" height="30" as="geometry" />
        </mxCell>
        <mxCell id="RWISE_kW_2bD8TeYGAy0-156" value="0" style="text;html=1;align=center;verticalAlign=middle;resizable=0;points=[];autosize=1;strokeColor=none;fillColor=none;" parent="1" vertex="1">
          <mxGeometry x="435" y="1580" width="30" height="30" as="geometry" />
        </mxCell>
        <mxCell id="RWISE_kW_2bD8TeYGAy0-157" value="1" style="text;html=1;align=center;verticalAlign=middle;resizable=0;points=[];autosize=1;strokeColor=none;fillColor=none;" parent="1" vertex="1">
          <mxGeometry x="390" y="1670" width="30" height="30" as="geometry" />
        </mxCell>
        <mxCell id="RWISE_kW_2bD8TeYGAy0-158" value="1" style="text;html=1;align=center;verticalAlign=middle;resizable=0;points=[];autosize=1;strokeColor=none;fillColor=none;" parent="1" vertex="1">
          <mxGeometry x="665" y="1670" width="30" height="30" as="geometry" />
        </mxCell>
        <mxCell id="VDe2Ef-Ti8tVaCGu3tfT-1" value="NONO_INIT_DONE" style="ellipse;whiteSpace=wrap;html=1;" parent="1" vertex="1">
          <mxGeometry x="220" y="1297.5" width="120" height="45" as="geometry" />
        </mxCell>
      </root>
    </mxGraphModel>
  </diagram>
</mxfile>
